<?xml version="1.0" encoding="UTF-8"?>
<!DOCTYPE svg PUBLIC "-//W3C//DTD SVG 1.1//EN" "http://www.w3.org/Graphics/SVG/1.1/DTD/svg11.dtd">
<svg xmlns="http://www.w3.org/2000/svg" version="1.1" width="256px" height="242px" style="shape-rendering:geometricPrecision; text-rendering:geometricPrecision; image-rendering:optimizeQuality; fill-rule:evenodd; clip-rule:evenodd" xmlns:xlink="http://www.w3.org/1999/xlink">
<g><path style="opacity:0.895" fill="#f6ae18" d="M 99.5,-0.5 C 101.5,-0.5 103.5,-0.5 105.5,-0.5C 109.07,0.385407 112.737,1.38541 116.5,2.5C 111.533,3.66228 106.533,3.82895 101.5,3C 100.695,1.88732 100.028,0.72065 99.5,-0.5 Z"/></g>
<g><path style="opacity:1" fill="#f7b016" d="M 101.5,5.5 C 122.044,4.40813 142.378,5.90813 162.5,10C 163.293,11.0852 163.96,12.2519 164.5,13.5C 144.167,14.8333 123.833,14.8333 103.5,13.5C 102.705,10.8556 102.038,8.1889 101.5,5.5 Z"/></g>
<g><path style="opacity:1" fill="#f4ac25" d="M 104.5,16.5 C 124.503,16.3334 144.503,16.5 164.5,17C 165.42,19.8349 166.42,22.6682 167.5,25.5C 147.167,26.8333 126.833,26.8333 106.5,25.5C 105.358,22.6008 104.692,19.6008 104.5,16.5 Z"/></g>
<g><path style="opacity:0.831" fill="#f7b014" d="M 193.5,16.5 C 212.259,18.8487 230.926,21.8487 249.5,25.5C 228.833,26.8333 208.167,26.8333 187.5,25.5C 189.526,22.4822 191.526,19.4822 193.5,16.5 Z"/></g>
<g><path style="opacity:0.999" fill="#f0a635" d="M 107.5,28.5 C 127.503,28.3334 147.503,28.5 167.5,29C 168.866,31.9973 169.533,35.164 169.5,38.5C 149.497,38.6666 129.497,38.5 109.5,38C 108.39,34.9509 107.723,31.7842 107.5,28.5 Z"/></g>
<g><path style="opacity:1" fill="#f5ad22" d="M 255.5,28.5 C 255.5,29.1667 255.5,29.8333 255.5,30.5C 253.364,32.8123 251.364,35.3123 249.5,38C 226.16,38.8331 202.826,38.6665 179.5,37.5C 181.306,34.528 183.306,31.6947 185.5,29C 208.831,28.5 232.164,28.3334 255.5,28.5 Z"/></g>
<g><path style="opacity:1" fill="#eba140" d="M 177.5,41.5 C 177.791,42.6491 178.624,43.3158 180,43.5C 188.51,44.9461 197.01,46.4461 205.5,48C 201.5,48.3333 197.5,48.6667 193.5,49C 209.497,49.4999 225.497,49.6666 241.5,49.5C 207.004,50.4984 172.337,50.8317 137.5,50.5C 134.716,46.2638 130.716,43.7638 125.5,43C 120.511,42.5007 115.511,42.3341 110.5,42.5C 120.144,41.1681 130.144,40.5014 140.5,40.5C 150.5,40.6667 160.5,40.8333 170.5,41C 171.255,43.1748 172.088,45.3415 173,47.5C 174.277,45.2528 175.777,43.2528 177.5,41.5 Z"/></g>
<g><path style="opacity:0.991" fill="#f0a733" d="M 241.5,49.5 C 225.497,49.6666 209.497,49.4999 193.5,49C 197.5,48.6667 201.5,48.3333 205.5,48C 197.01,46.4461 188.51,44.9461 180,43.5C 178.624,43.3158 177.791,42.6491 177.5,41.5C 200.996,40.3369 224.663,40.1702 248.5,41C 246.302,44.0228 243.969,46.8562 241.5,49.5 Z"/></g>
<g><path style="opacity:0.971" fill="#0c0a0a" d="M 110.5,42.5 C 115.511,42.3341 120.511,42.5007 125.5,43C 130.716,43.7638 134.716,46.2638 137.5,50.5C 137.5,51.1667 137.5,51.8333 137.5,52.5C 138.299,55.4299 138.632,58.4299 138.5,61.5C 138.5,62.1667 138.5,62.8333 138.5,63.5C 138.5,64.1667 138.5,64.8333 138.5,65.5C 138.5,68.1667 138.5,70.8333 138.5,73.5C 138.5,74.1667 138.5,74.8333 138.5,75.5C 138.5,78.5 138.5,81.5 138.5,84.5C 138.5,84.8333 138.5,85.1667 138.5,85.5C 138.5,86.1667 138.5,86.8333 138.5,87.5C 138.5,90.8333 138.5,94.1667 138.5,97.5C 138.5,98.1667 138.5,98.8333 138.5,99.5C 138.518,103.129 137.184,106.129 134.5,108.5C 107.517,108.512 80.5173,108.512 53.5,108.5C 53.3574,114.446 51.0241,119.279 46.5,123C 49.4542,123.005 52.4542,122.839 55.5,122.5C 58.9988,122.401 62.3321,123.068 65.5,124.5C 73.1802,121.592 80.6802,121.925 88,125.5C 89.6477,124.283 91.481,123.45 93.5,123C 103.161,122.5 112.828,122.334 122.5,122.5C 125.038,123.189 127.538,124.189 130,125.5C 132.317,124.588 134.484,123.588 136.5,122.5C 139.385,122.806 142.052,122.473 144.5,121.5C 144.929,117.537 146.263,113.871 148.5,110.5C 156.846,109.199 165.179,109.199 173.5,110.5C 176.191,113.23 177.525,116.564 177.5,120.5C 177.5,121.167 177.5,121.833 177.5,122.5C 177.5,125.833 177.5,129.167 177.5,132.5C 177.5,133.167 177.5,133.833 177.5,134.5C 177.5,137.5 177.5,140.5 177.5,143.5C 177.5,144.5 177.5,145.5 177.5,146.5C 177.5,149.5 177.5,152.5 177.5,155.5C 177.5,156.167 177.5,156.833 177.5,157.5C 177.5,160.833 177.5,164.167 177.5,167.5C 177.5,168.167 177.5,168.833 177.5,169.5C 177.5,172.833 177.5,176.167 177.5,179.5C 177.5,180.167 177.5,180.833 177.5,181.5C 176.539,185.456 174.205,188.123 170.5,189.5C 159.162,189.667 147.828,189.5 136.5,189C 134.22,188.767 132.22,187.934 130.5,186.5C 127.839,187.332 125.172,188.166 122.5,189C 107.807,189.078 93.1401,189.245 78.5,189.5C 60.4969,189.667 42.4969,189.5 24.5,189C 23.3333,187.833 22.1667,186.667 21,185.5C 20.1741,165.593 20.3408,145.76 21.5,126C 15.8333,125.667 10.1667,125.333 4.5,125C 2.67694,124.003 1.01027,122.836 -0.5,121.5C -0.5,114.833 -0.5,108.167 -0.5,101.5C 0.833333,101.167 0.833333,100.833 -0.5,100.5C -0.5,84.5 -0.5,68.5 -0.5,52.5C 1.43509,47.5043 5.10175,44.3376 10.5,43C 27.1396,42.7342 43.6396,42.5676 60,42.5C 67.8896,42.4638 75.5562,43.4638 83,45.5C 87.7348,45.7932 92.2348,44.9599 96.5,43C 101.155,42.5008 105.821,42.3342 110.5,42.5 Z"/></g>
<g><path style="opacity:1" fill="#fdfdfd" d="M 7.5,117.5 C 7.5,113.5 7.5,109.5 7.5,105.5C 14.3543,105.824 21.021,105.491 27.5,104.5C 28.404,103.791 28.7373,102.791 28.5,101.5C 23.5,101.5 18.5,101.5 13.5,101.5C 11.0072,101.671 9.17389,100.671 8,98.5C 7.33333,83.5 7.33333,68.5 8,53.5C 8.83333,52.6667 9.66667,51.8333 10.5,51C 21.8284,50.5001 33.1618,50.3335 44.5,50.5C 44.6666,71.8359 44.5,93.1693 44,114.5C 43.0975,115.701 41.9308,116.535 40.5,117C 29.505,117.5 18.505,117.667 7.5,117.5 Z"/></g>
<g><path style="opacity:1" fill="#fbfbfb" d="M 68.5,53.5 C 74.979,54.4907 81.6457,54.824 88.5,54.5C 88.5,58.5 88.5,62.5 88.5,66.5C 81.8333,66.5 75.1667,66.5 68.5,66.5C 68.5,73.8333 68.5,81.1667 68.5,88.5C 69.8333,88.5 71.1667,88.5 72.5,88.5C 72.5,82.1667 72.5,75.8333 72.5,69.5C 77.8333,69.5 83.1667,69.5 88.5,69.5C 88.8194,79.7491 88.4861,89.9158 87.5,100C 76.598,101.62 65.598,101.954 54.5,101C 53.6667,100.167 52.8333,99.3333 52,98.5C 51.5002,87.8385 51.3335,77.1719 51.5,66.5C 50.1667,66.5 48.8333,66.5 47.5,66.5C 47.5,62.1667 47.5,57.8333 47.5,53.5C 48.8333,53.5 50.1667,53.5 51.5,53.5C 51.5,52.5 51.5,51.5 51.5,50.5C 57.1667,50.5 62.8333,50.5 68.5,50.5C 68.5,51.5 68.5,52.5 68.5,53.5 Z"/></g>
<g><path style="opacity:1" fill="#fdfdfd" d="M 96.5,50.5 C 106.172,50.3335 115.839,50.5002 125.5,51C 127.329,51.2735 128.829,52.1068 130,53.5C 130.5,69.4965 130.667,85.4965 130.5,101.5C 119.162,101.667 107.828,101.5 96.5,101C 95.6667,100.167 94.8333,99.3333 94,98.5C 93.3333,89.8333 93.3333,81.1667 94,72.5C 94.9025,71.2986 96.0692,70.4652 97.5,70C 102.823,69.5006 108.156,69.334 113.5,69.5C 113.5,67.5 113.5,65.5 113.5,63.5C 112.167,63.5 110.833,63.5 109.5,63.5C 109.5,64.5 109.5,65.5 109.5,66.5C 104.167,66.5 98.8333,66.5 93.5,66.5C 93.3343,62.1539 93.501,57.8206 94,53.5C 95.045,52.6266 95.8783,51.6266 96.5,50.5 Z"/></g>
<g><path style="opacity:0.969" fill="#ea9f43" d="M 138.5,61.5 C 138.632,58.4299 138.299,55.4299 137.5,52.5C 172.012,52.4833 206.345,52.4833 240.5,52.5C 238.694,55.472 236.694,58.3053 234.5,61C 202.502,61.5 170.502,61.6666 138.5,61.5 Z"/></g>
<g><path style="opacity:1" fill="#a5a5a5" d="M 68.5,53.5 C 75.5,53.5 82.5,53.5 89.5,53.5C 89.8182,58.0323 89.4849,62.3656 88.5,66.5C 88.5,62.5 88.5,58.5 88.5,54.5C 81.6457,54.824 74.979,54.4907 68.5,53.5 Z"/></g>
<g><path style="opacity:1" fill="#000000" d="M 24.5,63.5 C 25.5,63.5 26.5,63.5 27.5,63.5C 27.5,71.8333 27.5,80.1667 27.5,88.5C 26.5,88.5 25.5,88.5 24.5,88.5C 24.5,80.1667 24.5,71.8333 24.5,63.5 Z"/></g>
<g><path style="opacity:0.811" fill="#e4984c" d="M 138.5,63.5 C 169.84,63.1668 201.174,63.5002 232.5,64.5C 230.377,67.2456 228.377,70.079 226.5,73C 212.171,73.4999 197.837,73.6666 183.5,73.5C 185.969,72.6829 188.635,72.1829 191.5,72C 178.097,69.8207 164.431,67.4873 150.5,65C 146.413,64.2375 142.413,64.4042 138.5,65.5C 138.5,64.8333 138.5,64.1667 138.5,63.5 Z"/></g>
<g><path style="opacity:1" fill="#616161" d="M 24.5,63.5 C 24.5,71.8333 24.5,80.1667 24.5,88.5C 25.5,88.5 26.5,88.5 27.5,88.5C 26.4324,89.4345 25.099,89.7678 23.5,89.5C 23.1736,80.6506 23.507,71.9839 24.5,63.5 Z"/></g>
<g><path style="opacity:0.864" fill="#e09254" d="M 183.5,73.5 C 168.5,73.5 153.5,73.5 138.5,73.5C 138.5,70.8333 138.5,68.1667 138.5,65.5C 142.413,64.4042 146.413,64.2375 150.5,65C 164.431,67.4873 178.097,69.8207 191.5,72C 188.635,72.1829 185.969,72.6829 183.5,73.5 Z"/></g>
<g><path style="opacity:0.761" fill="#d98a5c" d="M 218.5,84.5 C 192.005,85.4979 165.339,85.8312 138.5,85.5C 138.5,85.1667 138.5,84.8333 138.5,84.5C 139.473,82.0521 139.806,79.3854 139.5,76.5C 147.857,76.8599 156.024,78.1932 164,80.5C 164.333,80.1667 164.667,79.8333 165,79.5C 182.21,84.0544 200.044,85.721 218.5,84.5 Z"/></g>
<g><path style="opacity:1" fill="#de9156" d="M 138.5,75.5 C 167.174,75.1668 195.841,75.5002 224.5,76.5C 222.829,79.4921 220.829,82.1587 218.5,84.5C 200.044,85.721 182.21,84.0544 165,79.5C 164.667,79.8333 164.333,80.1667 164,80.5C 156.024,78.1932 147.857,76.8599 139.5,76.5C 139.806,79.3854 139.473,82.0521 138.5,84.5C 138.5,81.5 138.5,78.5 138.5,75.5 Z"/></g>
<g><path style="opacity:1" fill="#848484" d="M 110.5,82.5 C 110.5,84.5 110.5,86.5 110.5,88.5C 111.5,88.5 112.5,88.5 113.5,88.5C 113.5,86.5 113.5,84.5 113.5,82.5C 114.468,84.6074 114.802,86.9407 114.5,89.5C 112.833,89.5 111.167,89.5 109.5,89.5C 109.198,86.9407 109.532,84.6074 110.5,82.5 Z"/></g>
<g><path style="opacity:1" fill="#020202" d="M 110.5,82.5 C 111.5,82.5 112.5,82.5 113.5,82.5C 113.5,84.5 113.5,86.5 113.5,88.5C 112.5,88.5 111.5,88.5 110.5,88.5C 110.5,86.5 110.5,84.5 110.5,82.5 Z"/></g>
<g><path style="opacity:1" fill="#d68660" d="M 138.5,87.5 C 164.509,87.1669 190.509,87.5002 216.5,88.5C 214.694,91.472 212.694,94.3053 210.5,97C 186.502,97.5 162.502,97.6666 138.5,97.5C 138.5,94.1667 138.5,90.8333 138.5,87.5 Z"/></g>
<g><path style="opacity:0.975" fill="#d07f65" d="M 202.5,108.5 C 186.916,106.438 171.249,103.938 155.5,101C 160.019,100.825 164.353,100.325 168.5,99.5C 181.746,99.8227 194.913,99.4894 208,98.5C 207.505,102.484 205.672,105.817 202.5,108.5 Z"/></g>
<g><path style="opacity:1" fill="#4f4f4f" d="M 13.5,101.5 C 18.5,101.5 23.5,101.5 28.5,101.5C 28.7373,102.791 28.404,103.791 27.5,104.5C 23.0874,102.862 18.4208,101.862 13.5,101.5 Z"/></g>
<g><path style="opacity:1" fill="#cc796b" d="M 138.5,99.5 C 148.5,99.5 158.5,99.5 168.5,99.5C 164.353,100.325 160.019,100.825 155.5,101C 171.249,103.938 186.916,106.438 202.5,108.5C 179.833,108.5 157.167,108.5 134.5,108.5C 137.184,106.129 138.518,103.129 138.5,99.5 Z"/></g>
<g><path style="opacity:1" fill="#878787" d="M 27.5,104.5 C 21.021,105.491 14.3543,105.824 7.5,105.5C 7.5,109.5 7.5,113.5 7.5,117.5C 6.51511,113.366 6.18178,109.032 6.5,104.5C 13.5,104.5 20.5,104.5 27.5,104.5 Z"/></g>
<g><path style="opacity:1" fill="#c36d71" d="M 148.5,110.5 C 146.263,113.871 144.929,117.537 144.5,121.5C 137.988,120.833 131.321,120.167 124.5,119.5C 127.077,117.08 128.077,114.08 127.5,110.5C 134.5,110.5 141.5,110.5 148.5,110.5 Z"/></g>
<g><path style="opacity:1" fill="#ca756e" d="M 173.5,110.5 C 182.5,110.5 191.5,110.5 200.5,110.5C 199.516,113.965 197.85,117.131 195.5,120C 189.509,120.499 183.509,120.666 177.5,120.5C 177.525,116.564 176.191,113.23 173.5,110.5 Z"/></g>
<g><path style="opacity:1" fill="#fdfdfd" d="M 152.5,117.5 C 158.167,117.5 163.833,117.5 169.5,117.5C 169.5,138.833 169.5,160.167 169.5,181.5C 158.162,181.667 146.828,181.5 135.5,181C 134.667,180.167 133.833,179.333 133,178.5C 132.333,163.5 132.333,148.5 133,133.5C 133.833,132.667 134.667,131.833 135.5,131C 141.157,130.501 146.824,130.334 152.5,130.5C 152.5,126.167 152.5,121.833 152.5,117.5 Z"/></g>
<g><path style="opacity:0.384" fill="#c06b71" d="M 122.5,122.5 C 127.167,122.5 131.833,122.5 136.5,122.5C 134.484,123.588 132.317,124.588 130,125.5C 127.538,124.189 125.038,123.189 122.5,122.5 Z"/></g>
<g><path style="opacity:0.8" fill="#c46c73" d="M 177.5,122.5 C 182.875,122.172 188.208,122.505 193.5,123.5C 191.48,126.216 191.146,129.216 192.5,132.5C 187.5,132.5 182.5,132.5 177.5,132.5C 177.5,129.167 177.5,125.833 177.5,122.5 Z"/></g>
<g><path style="opacity:1" fill="#fbfbfb" d="M 28.5,130.5 C 33.8333,130.5 39.1667,130.5 44.5,130.5C 44.3505,131.552 44.5172,132.552 45,133.5C 47.6532,131.059 50.8199,130.059 54.5,130.5C 58.4391,130.112 61.9391,131.112 65,133.5C 70.1027,130.611 75.6027,129.778 81.5,131C 83.286,131.785 84.786,132.951 86,134.5C 86.4999,150.163 86.6666,165.83 86.5,181.5C 80.8333,181.5 75.1667,181.5 69.5,181.5C 69.5,168.833 69.5,156.167 69.5,143.5C 68.1667,143.5 66.8333,143.5 65.5,143.5C 65.5,156.167 65.5,168.833 65.5,181.5C 59.8333,181.5 54.1667,181.5 48.5,181.5C 48.5,168.833 48.5,156.167 48.5,143.5C 47.1667,143.5 45.8333,143.5 44.5,143.5C 44.5,156.167 44.5,168.833 44.5,181.5C 39.1667,181.5 33.8333,181.5 28.5,181.5C 28.5,164.5 28.5,147.5 28.5,130.5 Z"/></g>
<g><path style="opacity:1" fill="#fafafa" d="M 93.5,130.5 C 103.506,130.334 113.506,130.5 123.5,131C 125.286,131.785 126.786,132.951 128,134.5C 128.667,148.833 128.667,163.167 128,177.5C 126.833,178.667 125.667,179.833 124.5,181C 114.5,181.667 104.5,181.667 94.5,181C 93.0692,180.535 91.9025,179.701 91,178.5C 90.3333,163.833 90.3333,149.167 91,134.5C 91.6622,133.016 92.4955,131.683 93.5,130.5 Z"/></g>
<g><path style="opacity:1" fill="#ba6178" d="M 177.5,134.5 C 182.875,134.172 188.208,134.505 193.5,135.5C 194.482,138.096 195.149,140.762 195.5,143.5C 189.5,143.5 183.5,143.5 177.5,143.5C 177.5,140.5 177.5,137.5 177.5,134.5 Z"/></g>
<g><path style="opacity:1" fill="#141414" d="M 107.5,143.5 C 108.833,143.5 110.167,143.5 111.5,143.5C 111.5,151.833 111.5,160.167 111.5,168.5C 110.167,168.5 108.833,168.5 107.5,168.5C 107.5,160.167 107.5,151.833 107.5,143.5 Z"/></g>
<g><path style="opacity:1" fill="#8e8e8e" d="M 149.5,143.5 C 149.5,151.833 149.5,160.167 149.5,168.5C 150.5,168.5 151.5,168.5 152.5,168.5C 152.5,160.167 152.5,151.833 152.5,143.5C 153.493,151.984 153.826,160.651 153.5,169.5C 151.833,169.5 150.167,169.5 148.5,169.5C 148.174,160.651 148.507,151.984 149.5,143.5 Z"/></g>
<g><path style="opacity:1" fill="#000000" d="M 149.5,143.5 C 150.5,143.5 151.5,143.5 152.5,143.5C 152.5,151.833 152.5,160.167 152.5,168.5C 151.5,168.5 150.5,168.5 149.5,168.5C 149.5,160.167 149.5,151.833 149.5,143.5 Z"/></g>
<g><path style="opacity:1" fill="#b4b4b4" d="M 107.5,143.5 C 107.5,151.833 107.5,160.167 107.5,168.5C 108.833,168.5 110.167,168.5 111.5,168.5C 110.081,169.451 108.415,169.784 106.5,169.5C 106.174,160.651 106.507,151.984 107.5,143.5 Z"/></g>
<g><path style="opacity:1" fill="#b5597b" d="M 177.5,146.5 C 183.868,146.17 190.202,146.504 196.5,147.5C 197.482,150.096 198.149,152.762 198.5,155.5C 191.5,155.5 184.5,155.5 177.5,155.5C 177.5,152.5 177.5,149.5 177.5,146.5 Z"/></g>
<g><path style="opacity:1" fill="#ac4d7f" d="M 177.5,157.5 C 184.508,157.334 191.508,157.5 198.5,158C 199.727,160.736 200.727,163.569 201.5,166.5C 193.528,167.498 185.528,167.831 177.5,167.5C 177.5,164.167 177.5,160.833 177.5,157.5 Z"/></g>
<g><path style="opacity:0.994" fill="#a74381" d="M 177.5,169.5 C 185.833,169.5 194.167,169.5 202.5,169.5C 202.692,172.601 203.358,175.601 204.5,178.5C 195.525,179.498 186.525,179.832 177.5,179.5C 177.5,176.167 177.5,172.833 177.5,169.5 Z"/></g>
<g><path style="opacity:1" fill="#a03983" d="M 177.5,181.5 C 186.833,181.5 196.167,181.5 205.5,181.5C 205.62,184.48 206.287,187.313 207.5,190C 195.838,190.5 184.171,190.667 172.5,190.5C 172.158,189.662 171.492,189.328 170.5,189.5C 174.205,188.123 176.539,185.456 177.5,181.5 Z"/></g>
<g><path style="opacity:0.843" fill="#a22e8c" d="M 170.5,189.5 C 171.492,189.328 172.158,189.662 172.5,190.5C 140.996,190.832 109.662,190.498 78.5,189.5C 93.1401,189.245 107.807,189.078 122.5,189C 125.172,188.166 127.839,187.332 130.5,186.5C 132.22,187.934 134.22,188.767 136.5,189C 147.828,189.5 159.162,189.667 170.5,189.5 Z"/></g>
<g><path style="opacity:0.969" fill="#952286" d="M 145.5,192.5 C 145.187,195.95 143.521,199.116 140.5,202C 117.16,202.833 93.8262,202.666 70.5,201.5C 71.9705,198.864 73.6372,196.364 75.5,194C 99.0036,193.832 122.337,193.332 145.5,192.5 Z"/></g>
<g><path style="opacity:0.945" fill="#9a2d85" d="M 147.5,193.5 C 167.503,193.333 187.503,193.5 207.5,194C 208.713,196.687 209.38,199.52 209.5,202.5C 189.497,202.667 169.497,202.5 149.5,202C 148.287,199.313 147.62,196.48 147.5,193.5 Z"/></g>
<g><path style="opacity:0.714" fill="#911388" d="M 68.5,204.5 C 91.8429,204.167 115.176,204.5 138.5,205.5C 136.694,208.472 134.694,211.305 132.5,214C 109.16,214.833 85.8262,214.666 62.5,213.5C 64.5258,210.482 66.5258,207.482 68.5,204.5 Z"/></g>
<g><path style="opacity:0.881" fill="#952186" d="M 149.5,204.5 C 169.844,204.167 190.178,204.5 210.5,205.5C 211.642,208.399 212.308,211.399 212.5,214.5C 192.167,214.5 171.833,214.5 151.5,214.5C 151.149,211.097 150.482,207.763 149.5,204.5 Z"/></g>
<g><path style="opacity:0.798" fill="#8e0a88" d="M 80.5,217.5 C 97.0048,216.173 113.671,216.173 130.5,217.5C 128.827,220.663 126.66,223.329 124,225.5C 109.47,222.773 94.9695,220.107 80.5,217.5 Z"/></g>
<g><path style="opacity:0.763" fill="#921787" d="M 152.5,216.5 C 172.833,216.5 193.167,216.5 213.5,216.5C 214.167,219.833 214.833,223.167 215.5,226.5C 195.497,226.667 175.497,226.5 155.5,226C 154.115,222.961 153.115,219.794 152.5,216.5 Z"/></g>
<g><path style="opacity:1" fill="#8f0b88" d="M 155.5,228.5 C 175.833,228.5 196.167,228.5 216.5,228.5C 216.851,231.238 217.518,233.904 218.5,236.5C 209.184,237.665 199.851,237.832 190.5,237C 179.167,235 167.833,233 156.5,231C 155.748,230.329 155.414,229.496 155.5,228.5 Z"/></g>
<g><path style="opacity:0.586" fill="#8c1382" d="M 219.5,241.5 C 217.5,241.5 215.5,241.5 213.5,241.5C 214.134,240.053 215.301,239.387 217,239.5C 218.376,239.684 219.209,240.351 219.5,241.5 Z"/></g>
</svg>
